<svg viewBox="0 0 100 100" xmlns="http://www.w3.org/2000/svg" style="width:100%; height:100%; box-sizing:border-box;">
  <g stroke="#11243A" stroke-width="1.5" opacity="0.6">
    <line x1="40" y1="25" x2="20" y2="55" />
    <line x1="40" y1="25" x2="70" y2="35" />
    <line x1="70" y1="35" x2="80" y2="60" />
    <line x1="20" y1="55" x2="45" y2="80" />
    <line x1="45" y1="80" x2="80" y2="60" />
    <line x1="45" y1="80" x2="65" y2="75" />
    <line x1="20" y1="55" x2="65" y2="75" />
    <line x1="70" y1="35" x2="45" y2="80" />
    <line x1="40" y1="25" x2="45" y2="80" />
    <line x1="20" y1="55" x2="70" y2="35" />
    <line x1="20" y1="55" x2="45" y2="50" />
    <line x1="40" y1="25" x2="45" y2="50" />
    <line x1="70" y1="35" x2="45" y2="50" />
  </g>
  <circle cx="40" cy="25" r="7.5" fill="#15304E" />
  <circle cx="20" cy="55" r="9.5" fill="#44888C" />
  <circle cx="70" cy="35" r="8.5" fill="#15304E" />
  <circle cx="80" cy="60" r="6.5" fill="#15304E" />
  <circle cx="45" cy="80" r="7.5" fill="#44888C" />
  <circle cx="65" cy="75" r="5.5" fill="#44888C" />
  <circle cx="45" cy="50" r="5.5" fill="#44888C" />
</svg>